<?xml version="1.0" encoding="UTF-8" standalone="no"?>
<!-- Created with Inkscape (http://www.inkscape.org/) -->

<svg
   xmlns:dc="http://purl.org/dc/elements/1.1/"
   xmlns:cc="http://creativecommons.org/ns#"
   xmlns:rdf="http://www.w3.org/1999/02/22-rdf-syntax-ns#"
   xmlns:svg="http://www.w3.org/2000/svg"
   xmlns="http://www.w3.org/2000/svg"
   xmlns:sodipodi="http://sodipodi.sourceforge.net/DTD/sodipodi-0.dtd"
   xmlns:inkscape="http://www.inkscape.org/namespaces/inkscape"
   width="433.69577mm"
   height="292.83517mm"
   viewBox="0 0 433.69577 292.83517"
   version="1.1"
   id="svg8"
   inkscape:version="0.92.3 (2405546, 2018-03-11)"
   sodipodi:docname="cuadrocadena3.svg"
   inkscape:export-filename="C:\Users\luis\Desktop\pythonprojects\Pygame\Rider\varios\cuadrocadena32.png"
   inkscape:export-xdpi="3.3968511"
   inkscape:export-ydpi="3.3968511">
  <defs
     id="defs2" />
  <sodipodi:namedview
     id="base"
     pagecolor="#ffffff"
     bordercolor="#666666"
     borderopacity="1.0"
     inkscape:pageopacity="0.0"
     inkscape:pageshadow="2"
     inkscape:zoom="0.24748737"
     inkscape:cx="-664.38768"
     inkscape:cy="865.90775"
     inkscape:document-units="mm"
     inkscape:current-layer="layer2"
     showgrid="false"
     inkscape:window-width="1920"
     inkscape:window-height="1001"
     inkscape:window-x="-9"
     inkscape:window-y="-9"
     inkscape:window-maximized="1" />
  <metadata
     id="metadata5">
    <rdf:RDF>
      <cc:Work
         rdf:about="">
        <dc:format>image/svg+xml</dc:format>
        <dc:type
           rdf:resource="http://purl.org/dc/dcmitype/StillImage" />
        <dc:title />
      </cc:Work>
    </rdf:RDF>
  </metadata>
  <g
     inkscape:label="Capa 1"
     inkscape:groupmode="layer"
     id="layer1"
     transform="translate(129.6074,-10.463729)"
     style="display:inline">
    <path
       style="color:#000000;font-style:normal;font-variant:normal;font-weight:normal;font-stretch:normal;font-size:medium;line-height:normal;font-family:sans-serif;font-variant-ligatures:normal;font-variant-position:normal;font-variant-caps:normal;font-variant-numeric:normal;font-variant-alternates:normal;font-feature-settings:normal;text-indent:0;text-align:start;text-decoration:none;text-decoration-line:none;text-decoration-style:solid;text-decoration-color:#000000;letter-spacing:normal;word-spacing:normal;text-transform:none;writing-mode:lr-tb;direction:ltr;text-orientation:mixed;dominant-baseline:auto;baseline-shift:baseline;text-anchor:start;white-space:normal;shape-padding:0;clip-rule:nonzero;display:inline;overflow:visible;visibility:visible;opacity:1;isolation:auto;mix-blend-mode:normal;color-interpolation:sRGB;color-interpolation-filters:linearRGB;solid-color:#000000;solid-opacity:1;vector-effect:none;fill:#000000;fill-opacity:1;fill-rule:nonzero;stroke:none;stroke-width:15.51399994;stroke-linecap:butt;stroke-linejoin:miter;stroke-miterlimit:4;stroke-dasharray:none;stroke-dashoffset:0;stroke-opacity:1;color-rendering:auto;image-rendering:auto;shape-rendering:auto;text-rendering:auto;enable-background:accumulate"
       d="m 245.08402,10.46416 c -7.48221,0.03451 -13.82898,1.519187 -22.07031,2.658203 -6.513,0.900153 -14.04756,1.701722 -20.69727,4.103516 -3.32485,1.200897 -6.69057,2.757845 -9.39062,6.164062 -2.70005,3.406218 -3.49439,9.005208 -1.97266,13.289063 15.32722,43.147433 6.75408,19.661278 15.35938,43.234375 5.45059,14.931278 9.26316,25.716221 11.57226,32.750001 0.29306,0.89268 0.34524,1.16893 0.58984,1.94141 -2.68715,0.10073 -4.9525,0.20799 -9.48828,0.27734 -13.46914,0.20595 -35.59115,0.27177 -70.24023,0.25391 l -85.414064,-0.0449 -1.4375,-1.23242 c -0.512895,-0.43923 -0.982588,-0.86815 -2.378906,-3.82617 -1.396319,-2.95802 -3.390753,-8.05959 -6.398438,-16.285157 -2.006944,-5.488741 -3.782641,-10.61304 -5.085937,-14.427734 -0.03425,-0.100258 -0.04844,-0.145722 -0.08203,-0.244141 3.197185,-0.64429 7.35184,-1.179691 11.695313,-1.179687 7.43329,-7e-6 14.394955,-2.5902 19.808594,-5.582031 2.706819,-1.495916 4.969592,-2.417522 7.251953,-6.212891 1.14118,-1.897684 2.093991,-6.49951 -0.195313,-9.759766 C 74.220496,53.080858 71.570661,52.672175 69.681675,52.366504 48.992453,49.018564 48.160187,48.629838 36.6973,47.868457 l -0.03516,-0.0039 -0.03516,-0.002 c -5.486111,-0.315 -14.75864,-0.981131 -23.353508,0.300822 -4.297434,0.640977 -8.5631942,1.628021 -12.507812,4.480469 -3.944619,2.852447 -6.882603,8.91531 -5.982422,14.472656 l -0.09961,-1.240234 c 0,3.876571 -0.100018,7.435555 2.726563,11.3125 2.82658,3.876944 7.6947199,4.850596 10.9355468,4.917968 l 0.1464843,0.002 0.1464844,-0.002 c 0,0 0.6570455,0.02218 1.0449219,0.02734 0.7012116,1.856309 1.5424436,4.25777 2.3632816,6.720703 1.744308,5.233821 3.332031,10.408203 3.332031,10.408203 l 0.05664,0.189454 0.06836,0.185546 c 3.561973,9.807476 5.549528,15.558926 6.371094,18.580086 0.358491,1.31828 0.409825,1.83275 0.43164,2.00781 -0.694375,1.64319 -1.125257,3.31881 -1.351562,5.08984 -0.03641,0.0415 -0.01259,0.0161 -0.05274,0.0606 -0.907543,1.00537 -2.738387,2.80803 -5.484375,5.30469 -5.4919747,4.99331 -14.69707,12.87668 -28.892578,24.80078 l 0.0332,-0.0254 c -25.464825,21.16085 -50.789466,42.46249 -76.058589,63.82812 -9.75015,8.16093 -15.285551,12.67222 -18.406251,14.84961 -3.12602,2.1811 -2.71276,1.88009 -4.32618,2.07618 -4.73663,0.57563 -9.309,2.46797 -12.57421,5.98828 -3.26522,3.5203 -4.80079,8.34518 -4.80079,13.09179 0,7.89284 4.91099,14.57297 11.27149,17.35938 6.36003,2.7862 14.45598,1.96879 20.480471,-3.09961 l 1.19336,-1.00391 h 24.972652 46.392579 50.710937 47.88086 l 1.193359,1.00391 c 7.547408,6.35071 19.186832,6.06515 26.179682,-0.92774 2.64123,-2.6412 4.67305,-5.62904 5.32813,-9.61132 -0.0202,-0.002 -0.0493,-0.0805 0.45703,-0.63282 1.28332,-1.39995 4.03282,-4.02718 8.6582,-8.11718 9.25077,-8.18002 26.08453,-22.37688 55.75782,-47.22852 18.48729,-15.48328 35.49084,-29.57659 47.96679,-39.78906 5.73706,-4.6962 10.21149,-8.31153 13.71875,-11.10938 1.40274,3.93065 3.29812,9.22502 5.33985,14.86328 l 4.56445,12.60547 c 16.4453,44.85946 2.38487,6.25407 16.4453,44.85946 3.38132,9.27942 5.6505,15.84814 6.91602,20.02539 0.57029,1.88242 0.86508,3.10864 1.02734,3.88867 -0.26977,0.89895 -0.42533,1.71195 -0.57226,2.58008 -0.25835,1.5264 -0.40821,3.10602 -0.40821,4.76172 0,10.28849 8.87226,18.47851 19.05664,18.47851 8.13262,0 14.89963,-5.0896 17.68555,-11.59765 2.78593,-6.50806 1.73899,-14.99737 -4.01953,-20.75586 -1.07744,-1.07748 -2.18206,-2.06268 -3.26367,-2.92383 -0.33799,-0.2691 -0.59444,-0.50615 -0.86133,-0.75 -0.57259,-1.29739 -1.37707,-3.20805 -2.33008,-5.54492 -1.94958,-4.78057 -4.48684,-11.22244 -6.98828,-17.7168 -2.50144,-6.49436 -4.97274,-13.05451 -6.80078,-18.08203 -0.91402,-2.51376 -1.66872,-4.65363 -2.16797,-6.14844 -0.21002,-0.62884 -0.34303,-1.05841 -0.44531,-1.39844 v -0.47265 l -6.87696,-18.62891 -0.0254,-0.0703 C 253.07258,126.1108 239.53482,90.212088 222.52344,42.118583 c 1.21845,-0.42318 3.18322,-1.020846 6.05664,-1.46875 4.02625,-0.627603 8.94881,-1.102731 13.83789,-2.089844 4.88909,-0.987112 10.01398,-2.247723 14.35938,-6.402343 1.66348,-1.590358 3.95117,-4.14095 4.41406,-8.085938 0.46289,-3.944988 -1.27594,-7.484838 -3.36719,-10.15625 l -1.90234,-2.431641 -3.05273,-0.458984 c -2.70411,-0.406039 -5.29116,-0.572047 -7.78516,-0.560547 z M 70.593785,140.65361 c 14.266351,0.0371 37.111245,1.51977 65.171875,1.61524 l 0.11914,0.002 0.11719,-0.004 c 0,0 21.10083,-0.5722 42.23242,-0.82226 9.61012,-0.11372 18.80689,-0.12367 26.37695,-0.0215 -5.62719,4.95482 -12.78052,10.82808 -20.27929,16.70313 -16.18327,12.67908 -32.59766,24.64453 -32.59766,24.64453 l -0.21484,0.15625 -0.20508,0.16992 c -17.80276,14.94326 -33.79748,28.62743 -45.52539,38.5293 -5.20648,4.39582 -9.190797,7.70219 -12.458987,10.35547 -2.314104,-6.37707 -7.875031,-21.6894 -16.925782,-46.60938 -5.352692,-14.73791 -10.372327,-27.02704 -13.564453,-35.75781 -1.35633,-3.70969 -2.150636,-6.35053 -2.71289,-8.48828 2.436883,-0.29926 5.900646,-0.48453 10.466797,-0.47266 z m -36.185547,11.36328 c 0.468673,1.19919 0.699715,1.60561 1.273437,3.17774 2.569862,7.04197 11.462566,31.34055 19.771485,54.02539 4.21274,11.50139 8.316035,21.54234 11.080078,28.78711 0.653843,1.71377 0.907939,2.60344 1.390625,3.96875 -2.003347,0.0452 -3.618161,0.12097 -6.34961,0.10742 -9.079081,-0.045 -21.692288,-0.34961 -35.880859,-0.34961 -7.290543,0 -37.156157,-0.10356 -65.046875,-0.28125 -12.296232,-0.0783 -23.466656,-0.17698 -32.912109,-0.28125 1.309989,-1.09721 2.246942,-1.88667 3.625,-3.03906 l -0.04297,0.0332 c 0,0 27.802348,-22.92136 73.205078,-61.34961 l 0.019531,-0.0176 c 9.100958,-7.65013 18.102666,-15.15535 24.941407,-20.77929 2.015823,-1.65775 3.34254,-2.71857 4.925781,-4.00196 z M 266.8848,248.51104 c 0.0111,0.055 0.0673,0.24328 0.0762,0.29101 0.0793,0.42726 -0.14894,0.37364 -0.0762,-0.29101 z"
       id="path20"
       inkscape:connector-curvature="0"
       sodipodi:nodetypes="csssccccscccsccccsscccccssccsccccscccccccscccsccssccccccccccsssccccsccsssccccssccccccsscscccccccccscscccccssccccccsccscccccccccccc" />
  </g>
  <g
     inkscape:groupmode="layer"
     id="layer2"
     inkscape:label="Capa 2"
     transform="translate(142.87892,82.262149)"
     style="display:inline">
    <g
       id="g912"
       transform="matrix(0.99288277,0,0,0.99283753,-8.514396,-3.4389975)"
       style="stroke-width:1.00719118">
      <ellipse
         ry="40.140537"
         rx="39.509052"
         cy="167.5668"
         cx="83.082664"
         id="path855"
         style="opacity:0.73699999;fill:#000000;fill-opacity:0.72368421;stroke:#0a0a00;stroke-width:2.01438236;stroke-linecap:butt;stroke-linejoin:round;stroke-miterlimit:4;stroke-dasharray:2.01438241, 2.01438241;stroke-dashoffset:0;stroke-opacity:1;paint-order:fill markers stroke" />
      <path
         sodipodi:nodetypes="sssssss"
         inkscape:connector-curvature="0"
         id="circle827"
         d="m 131.7219,167.24055 c 0,26.61084 -21.23298,48.18319 -47.425181,48.18319 -21.59706,0 -202.058789,-30.44707 -202.058789,-30.44707 -13.12907,-1.57375 -16.40105,-13.00598 -16.40105,-17.67456 0,-4.79085 3.75808,-16.37755 15.85523,-17.51234 0,0 181.12788,-30.73242 202.604609,-30.73242 26.192201,1e-5 47.425181,21.57235 47.425181,48.1832 z"
         style="opacity:0.73699999;fill:#000000;fill-opacity:0.72368421;stroke:#000000;stroke-width:0.26439893;stroke-linecap:butt;stroke-linejoin:round;stroke-miterlimit:4;stroke-dasharray:none;stroke-opacity:1;paint-order:fill markers stroke" />
      <path
         sodipodi:nodetypes="ssscsss"
         inkscape:connector-curvature="0"
         id="circle818"
         d="m 123.49108,167.24055 c 0,21.99243 -17.5481,39.91302 -39.194361,39.82082 -16.232629,-0.0692 -202.522759,-26.8404 -202.522759,-26.8404 -12.03989,-1.57772 -11.46791,-13.65696 -11.46791,-13.65696 0,0 0.0756,-10.65868 11.54819,-12.56803 0,0 184.283119,-26.57626 202.442479,-26.57625 21.646451,0 39.194361,17.82839 39.194361,39.82082 z"
         style="opacity:1;fill:none;fill-opacity:1;stroke:#000000;stroke-width:2.01438236;stroke-linecap:butt;stroke-linejoin:round;stroke-miterlimit:4;stroke-dasharray:4.02876482, 2.01438241, 1.00719121, 2.01438241;stroke-dashoffset:0;stroke-opacity:1;paint-order:fill markers stroke" />
    </g>
  </g>
</svg>
