<?xml version="1.0" encoding="UTF-8" standalone="no"?>
<svg
   xmlns:dc="http://purl.org/dc/elements/1.1/"
   xmlns:cc="http://creativecommons.org/ns#"
   xmlns:rdf="http://www.w3.org/1999/02/22-rdf-syntax-ns#"
   xmlns:svg="http://www.w3.org/2000/svg"
   xmlns="http://www.w3.org/2000/svg"
   xmlns:sodipodi="http://sodipodi.sourceforge.net/DTD/sodipodi-0.dtd"
   xmlns:inkscape="http://www.inkscape.org/namespaces/inkscape"
   width="130"
   height="76"
   viewBox="0 0 34.395832 20.108334"
   version="1.1"
   id="svg8"
   inkscape:version="1.0.2 (e86c870879, 2021-01-15, custom)"
   sodipodi:docname="car.svg"
   inkscape:export-filename="C:\Users\luis\Desktop\pythonprojects\Pygame\Rider\varios\cuadrocadena32.png"
   inkscape:export-xdpi="3.3968511"
   inkscape:export-ydpi="3.3968511">
  <defs
     id="defs2" />
  <sodipodi:namedview
     id="base"
     pagecolor="#ffffff"
     bordercolor="#666666"
     borderopacity="1.0"
     inkscape:pageopacity="0.0"
     inkscape:pageshadow="2"
     inkscape:zoom="4"
     inkscape:cx="24.745726"
     inkscape:cy="111.22349"
     inkscape:document-units="mm"
     inkscape:current-layer="layer2"
     showgrid="false"
     inkscape:window-width="1920"
     inkscape:window-height="1001"
     inkscape:window-x="-9"
     inkscape:window-y="-9"
     inkscape:window-maximized="1"
     inkscape:document-rotation="0"
     units="px"
     showguides="true"
     inkscape:guide-bbox="true"
     inkscape:snap-object-midpoints="true"
     inkscape:snap-global="true"
     inkscape:snap-page="true"
     inkscape:snap-grids="false"
     inkscape:snap-to-guides="true"
     inkscape:snap-others="true"
     inkscape:snap-smooth-nodes="true"
     inkscape:object-paths="true"
     inkscape:snap-intersection-paths="true">
    <sodipodi:guide
       position="5.2916667,5.2916667"
       orientation="-1,0"
       id="guide870"
       inkscape:label=""
       inkscape:locked="false"
       inkscape:color="rgb(0,0,255)" />
    <sodipodi:guide
       position="29.104167,5.2916667"
       orientation="-1,0"
       id="guide872"
       inkscape:label=""
       inkscape:locked="false"
       inkscape:color="rgb(0,0,255)" />
    <sodipodi:guide
       position="17.197917,5.2916667"
       orientation="0,1"
       id="guide878"
       inkscape:label=""
       inkscape:locked="false"
       inkscape:color="rgb(0,0,255)" />
  </sodipodi:namedview>
  <metadata
     id="metadata5">
    <rdf:RDF>
      <cc:Work
         rdf:about="">
        <dc:format>image/svg+xml</dc:format>
        <dc:type
           rdf:resource="http://purl.org/dc/dcmitype/StillImage" />
        <dc:title></dc:title>
      </cc:Work>
    </rdf:RDF>
  </metadata>
  <g
     inkscape:label="Capa 1"
     inkscape:groupmode="layer"
     id="layer1"
     transform="translate(129.6074,-10.463729)"
     style="display:inline">
    <path
       id="path927"
       style="fill:#000000;fill-opacity:1;stroke:none;stroke-width:0.999999px;stroke-linecap:butt;stroke-linejoin:miter;stroke-opacity:1"
       d="M 49.786318,-3.4460094 C 37.328608,-3.2826946 27.285583,1.1020379 17.804688,8.6210938 11.094817,13.823326 10.518544,16.544028 6.7597656,18.744141 1.1799357,20.925287 -10.377552,23.867344 -11.748047,28.595703 -14.388803,37.706727 -13.472656,45.830894 -13.472656,56 c 0,3.066452 3.807756,8.216797 10.3769529,8.216797 C -3.0015929,44.752608 4.4323906,33.478516 20,33.478516 c 16.432819,0 23.651155,12.573811 21.095703,30.738281 H 87.177734 C 87.802452,43.10476 96.286098,32.890625 110,32.890625 c 18.54156,0 23.33008,16.250789 23.33008,31.326172 0.18701,2.721188 8.60226,0.610476 11.9375,-6.554688 3.79368,-8.150033 -3.2138,-25.993699 -9.50781,-31.238281 C 129.46575,21.179246 100.34322,22.20358 94.681641,18.123047 84.195101,5.8135856 68.820503,-3.4592354 49.786318,-3.4460094 Z m 0.322615,6.9299678 C 77.399543,5.3179263 80.563611,13.317204 85.363281,21.167969 L 52.191114,21.971093 Z M 46.584846,21.920899 16.276414,21.888836 C 25.113554,9.7941166 35.088223,6.794797 45.978516,3.9392468 Z"
       transform="matrix(0.26458333,0,0,0.26458333,-129.6074,10.463729)"
       sodipodi:nodetypes="ccccscsccscsscccccccccc"
       inkscape:export-filename="C:\Users\luis\Desktop\pythonprojects\Crazy Bike\Assets\Images\Player_costumes\car_board.png"
       inkscape:export-xdpi="139.52013"
       inkscape:export-ydpi="139.52013" />
  </g>
  <g
     inkscape:groupmode="layer"
     id="layer2"
     inkscape:label="Capa 2"
     transform="translate(142.87892,82.262149)"
     style="display:inline">
    <path
       id="path1030"
       style="fill:#000000;fill-opacity:1;fill-rule:evenodd;stroke:none;stroke-width:1.195;stroke-miterlimit:4;stroke-dasharray:none;stroke-opacity:1"
       d="m -113.51017,-61.326993 c -2.92251,0 -5.29167,2.36916 -5.29167,5.291667 0,2.922506 2.36916,5.291667 5.29167,5.291666 2.92251,10e-7 5.29167,-2.36916 5.29167,-5.291666 0,-2.922507 -2.36916,-5.291667 -5.29167,-5.291667 z m 0.57188,4.301138 -0.57188,-2.764797 c 1.42926,-0.04953 2.87202,0.92034 3.26698,1.864485 z m 3.04392,-0.161856 c 0.05,0.243948 0.3675,0.926214 0.24185,1.152385 5e-4,0.945728 -0.54973,1.82773 -1.03922,2.439644 l -1.78191,-2.219325 z m -4.4508,0.225026 -2.77046,-0.287554 c 0.22732,-1.122712 1.48118,-2.282964 2.74298,-2.404505 z m 3.0576,4.050166 c -0.55158,0.320365 -1.64085,0.836676 -2.2226,0.619083 -0.41127,1.3e-5 -1.03854,-0.198854 -1.4087,-0.321427 l 1.53149,-2.252223 z m -4.39663,-0.111105 c -0.94359,-0.550002 -1.83201,-2.147964 -1.61747,-3.408577 l 2.56064,0.944889 z"
       sodipodi:nodetypes="ssssscccccccccccccccccccccc" />
    <g
       id="g1019"
       transform="translate(23.812497)">
      <path
         id="path1015"
         style="fill:#aa0000;fill-rule:evenodd;stroke-width:0.226412"
         d="m -137.58725,-71.701036 c -2.35026,5.2e-5 -4.25551,1.905298 -4.25556,4.255554 5e-5,2.350257 1.9053,4.255503 4.25556,4.255555 2.35025,-5.2e-5 4.2555,-1.905298 4.25555,-4.255555 -5e-5,-2.350256 -1.9053,-4.255502 -4.25555,-4.255554 z m 5.3e-4,1.077454 v 1.903243 c -0.23731,-6.7e-5 -0.45929,0.06437 -0.64958,0.17725 l -0.96326,-1.641761 c 0.47277,-0.278937 1.02417,-0.438699 1.61282,-0.438732 z m 1.60403,0.433048 c 0.47776,0.279782 0.87546,0.681231 1.15187,1.16117 l -1.64591,0.955497 c -0.11152,-0.196486 -0.27363,-0.360211 -0.4687,-0.473873 z m -4.35013,1.143083 1.64176,0.963249 c -0.10892,0.187815 -0.17113,0.405995 -0.17105,0.63872 h -1.90324 c 5e-5,-0.584164 0.15752,-1.131623 0.43253,-1.601969 z m 4.02042,1.601969 h 1.90325 c -3e-5,0.580184 -0.15477,1.123971 -0.42633,1.592151 l -1.65055,-0.949296 c 0.11036,-0.188783 0.1737,-0.408347 0.17363,-0.642855 z m -2.37504,0.645439 c 0.11441,0.194593 0.27902,0.355876 0.47594,0.466638 l -0.95447,1.646928 c -0.47936,-0.27489 -0.88009,-0.671045 -1.16065,-1.1467 z m 1.73632,0.45992 0.92294,1.665015 c -0.46073,0.259964 -0.99236,0.407695 -1.55907,0.407727 v -1.903243 c 0.23168,6.4e-5 0.44888,-0.06153 0.63613,-0.169499 z"
         sodipodi:nodetypes="ccccccccccccccccccccccccccccccccccc" />
      <path
         id="path1017"
         style="fill:#000000;fill-opacity:1;fill-rule:evenodd;stroke-width:0.195"
         d="m -137.58725,-72.737149 c -2.92251,0 -5.29167,2.36916 -5.29167,5.291667 0,2.922506 2.36916,5.291666 5.29167,5.291666 2.92251,0 5.29167,-2.36916 5.29167,-5.291666 0,-2.922507 -2.36916,-5.291667 -5.29167,-5.291667 z m 0,1.036113 c 2.35026,5.1e-5 4.2555,1.905297 4.25555,4.255554 -5e-5,2.350256 -1.90529,4.255502 -4.25555,4.255554 -2.35026,-5.2e-5 -4.2555,-1.905298 -4.25556,-4.255554 6e-5,-2.350257 1.9053,-4.255503 4.25556,-4.255554 z"
         sodipodi:nodetypes="sssssccccc" />
    </g>
    <path
       style="fill:#000000;stroke-width:0.0210012"
       d="m -152.4757,-53.025691 c -0.22083,-0.02839 -0.3924,-0.05929 -0.53995,-0.09726 -0.0743,-0.01913 -0.0795,-0.02439 -0.047,-0.04813 0.0691,-0.0505 -0.007,-0.07598 -0.20847,-0.07003 -0.17201,0.005 -0.20193,-5.6e-4 -0.39607,-0.07503 -0.11551,-0.04429 -0.32741,-0.136365 -0.4709,-0.204619 -0.23171,-0.110217 -0.2567,-0.127161 -0.22343,-0.15148 0.0594,-0.04344 -0.002,-0.08549 -0.16818,-0.116207 -0.12057,-0.02221 -0.17325,-0.04742 -0.33339,-0.159514 -0.18892,-0.132247 -0.56479,-0.437482 -0.61869,-0.502437 -0.024,-0.02887 -0.0231,-0.03393 0.006,-0.03393 0.0354,0 0.0446,-0.03728 0.018,-0.07351 -0.008,-0.01157 -0.0752,-0.04907 -0.14824,-0.08336 -0.11363,-0.05335 -0.15765,-0.09232 -0.30452,-0.26962 -0.17995,-0.217217 -0.45522,-0.608736 -0.45522,-0.64746 0,-0.01243 0.0142,-0.01716 0.0315,-0.01053 0.0223,0.0086 0.0311,-0.0014 0.0303,-0.03451 -8.1e-4,-0.03031 -0.0446,-0.08307 -0.12541,-0.150937 -0.11133,-0.0935 -0.13494,-0.128422 -0.22722,-0.33602 -0.18681,-0.420241 -0.31996,-0.81535 -0.25324,-0.751455 0.0943,0.09032 0.0775,-0.03499 -0.0255,-0.190034 -0.073,-0.109836 -0.0924,-0.163131 -0.12417,-0.340248 -0.0412,-0.229975 -0.0833,-0.615188 -0.0833,-0.762264 0,-0.08132 0.004,-0.08999 0.032,-0.06686 0.0699,0.058 0.0748,-0.02848 0.0122,-0.215213 -0.0447,-0.133416 -0.0461,-0.154479 -0.0242,-0.378022 0.0253,-0.258455 0.0471,-0.401462 0.0997,-0.654141 0.0304,-0.145855 0.0377,-0.160923 0.0621,-0.127542 0.0152,0.0208 0.0349,0.0307 0.0436,0.02195 0.009,-0.0087 0.0214,-0.116737 0.0279,-0.239983 0.0132,-0.249576 0.0608,-0.393367 0.28441,-0.859368 0.10463,-0.218066 0.15521,-0.284561 0.15521,-0.204023 0,0.02472 0.009,0.02744 0.0384,0.01167 0.0271,-0.0145 0.0464,-0.06576 0.0654,-0.173999 0.0228,-0.129729 0.045,-0.17939 0.14366,-0.321443 0.19322,-0.278378 0.51361,-0.661538 0.55316,-0.661538 0.0101,0 0.0183,0.0133 0.0183,0.02953 0,0.01837 0.0146,0.02571 0.0387,0.01941 0.0225,-0.0059 0.0685,-0.07164 0.10981,-0.157096 0.061,-0.126139 0.098,-0.169286 0.26055,-0.304411 0.1042,-0.08659 0.29342,-0.22806 0.42047,-0.314366 0.20425,-0.13874 0.23179,-0.151951 0.23773,-0.114023 0.011,0.0704 0.0558,0.04982 0.17732,-0.08138 0.14458,-0.156154 0.38954,-0.280884 0.87521,-0.445643 0.19912,-0.06755 0.23587,-0.07278 0.21997,-0.03132 -0.0259,0.0676 0.062,0.05052 0.19691,-0.03823 0.12918,-0.08498 0.16291,-0.09641 0.40348,-0.136726 0.14439,-0.02419 0.38066,-0.05 0.52503,-0.05734 0.24057,-0.01224 0.26018,-0.0105 0.23441,0.02072 -0.0495,0.05999 0.0601,0.06707 0.21903,0.01417 0.12306,-0.04096 0.16519,-0.04491 0.34223,-0.03208 0.20678,0.01498 0.61742,0.07875 0.76775,0.119231 0.0766,0.02061 0.0807,0.02514 0.0462,0.0504 -0.0363,0.02652 -0.036,0.02878 0.005,0.05072 0.0238,0.01272 0.12057,0.02067 0.21701,0.01781 0.15795,-0.0047 0.19355,0.0023 0.3841,0.07541 0.11551,0.0443 0.32741,0.136393 0.47089,0.204647 0.23171,0.110221 0.2567,0.127161 0.22344,0.151484 -0.0593,0.04338 0.002,0.08547 0.16746,0.116072 0.11687,0.02154 0.1751,0.04861 0.32421,0.150736 0.18265,0.125092 0.5435,0.417367 0.61811,0.50063 0.0367,0.04087 0.0369,0.04465 0.004,0.04465 -0.0808,0 -0.0168,0.07657 0.12688,0.151903 0.12796,0.06707 0.17408,0.108344 0.31896,0.285536 0.18111,0.221504 0.44499,0.598882 0.44499,0.63639 0,0.01249 -0.0141,0.01727 -0.0315,0.01064 -0.0211,-0.0081 -0.0315,8.13e-4 -0.0315,0.0275 0,0.02175 0.0574,0.09151 0.12751,0.154973 0.11209,0.101436 0.14037,0.144194 0.2338,0.353532 0.10536,0.236076 0.22861,0.561206 0.25609,0.675593 0.0127,0.05291 0.01,0.05794 -0.0285,0.04584 -0.0707,-0.02243 -0.0529,0.06064 0.0431,0.202032 0.0732,0.107784 0.0916,0.158072 0.12417,0.340119 0.042,0.234159 0.084,0.618173 0.084,0.767512 0,0.07394 -0.006,0.08946 -0.0252,0.06986 -0.0749,-0.07487 -0.0864,0.0112 -0.0254,0.189244 0.058,0.169116 0.0574,0.246991 -0.005,0.688608 -0.0563,0.398551 -0.10526,0.565065 -0.14067,0.477778 -0.0265,-0.06534 -0.0552,0.04952 -0.0555,0.222096 -2.8e-4,0.166551 -0.009,0.208074 -0.087,0.409523 -0.0476,0.1233 -0.13808,0.330501 -0.20092,0.460446 -0.10621,0.219645 -0.15344,0.282431 -0.15344,0.204023 0,-0.02473 -0.009,-0.02745 -0.0385,-0.01167 -0.0269,0.01442 -0.0465,0.06569 -0.0654,0.171445 -0.0353,0.197238 -0.17363,0.408054 -0.55385,0.843777 -0.12356,0.141593 -0.16137,0.167895 -0.16137,0.112222 0,-0.01837 -0.0146,-0.0257 -0.0387,-0.0194 -0.0224,0.0059 -0.0682,0.07108 -0.10885,0.155115 -0.0607,0.125548 -0.0967,0.166873 -0.26815,0.308178 -0.1089,0.08975 -0.29854,0.232285 -0.42143,0.316741 -0.19841,0.136368 -0.22417,0.148706 -0.23012,0.110256 -0.004,-0.0238 -0.0198,-0.0433 -0.0356,-0.0433 -0.0276,0 -0.2019,0.17055 -0.21694,0.212322 -0.0155,0.04316 -0.46399,0.243615 -0.80001,0.357601 -0.20201,0.06853 -0.23594,0.07299 -0.21899,0.02879 0.0259,-0.06725 -0.0564,-0.0517 -0.19476,0.03682 -0.0972,0.06223 -0.18646,0.100507 -0.27442,0.117736 -0.21194,0.04152 -0.6132,0.08678 -0.76925,0.08678 -0.12479,0 -0.14156,-0.0043 -0.1197,-0.03064 0.0459,-0.05525 -0.0678,-0.06245 -0.21278,-0.01349 -0.14818,0.05004 -0.26325,0.05236 -0.5796,0.01167 z m 1.23525,-1.302217 c 1.50695,-0.210183 2.77902,-1.270825 3.26051,-2.718583 0.60023,-1.804811 -0.14768,-3.783797 -1.79674,-4.75418 -1.23987,-0.729594 -2.84344,-0.724812 -4.08302,0.01218 -0.70475,0.419008 -1.23899,1.004994 -1.59483,1.749322 -0.72838,1.52361 -0.40942,3.369112 0.78949,4.568028 0.6118,0.6118 1.42055,1.018852 2.26994,1.142485 0.27738,0.04037 0.86781,0.04075 1.15465,8.13e-4 z m -1.05118,-0.157039 c -1.38136,-0.190554 -2.53636,-1.066455 -3.07197,-2.329648 -0.49309,-1.162898 -0.38527,-2.489924 0.2893,-3.560593 0.5324,-0.845023 1.38124,-1.452695 2.37314,-1.698883 0.51623,-0.128127 1.26888,-0.128127 1.78511,0 1.31394,0.326122 2.34987,1.27498 2.77126,2.538339 0.41799,1.253172 0.16583,2.624677 -0.67233,3.656823 -0.56269,0.692915 -1.36695,1.172883 -2.2681,1.35355 -0.17978,0.03605 -0.32137,0.04752 -0.64988,0.05266 -0.23102,0.0036 -0.48146,-0.002 -0.55653,-0.01227 z m 1.14457,-0.314506 c 0.12705,-0.02501 0.32078,-0.07386 0.43052,-0.108596 0.19542,-0.06186 0.65113,-0.263745 0.65094,-0.288367 -2.6e-4,-0.03025 -1.24919,-1.657538 -1.31884,-1.718372 -0.14713,-0.128485 -0.3772,-0.166559 -0.58319,-0.09651 -0.0711,0.02419 -0.13957,0.07176 -0.219,0.152259 -0.0635,0.06439 -0.36718,0.482477 -0.67477,0.929092 l -0.55926,0.812026 0.16024,0.07291 c 0.29637,0.134856 0.68813,0.242699 1.04596,0.287933 0.24512,0.03098 0.80804,0.0086 1.0674,-0.04238 z m -2.47786,-1.774266 c 0.64396,-0.923915 0.67963,-0.988624 0.65294,-1.184753 -0.0313,-0.230138 -0.1884,-0.424612 -0.41006,-0.50765 -0.0645,-0.02414 -0.53299,-0.16866 -1.04122,-0.321149 l -0.92405,-0.277256 -0.0136,0.07422 c -0.0321,0.176044 -0.041,0.531446 -0.0192,0.765042 0.0794,0.848304 0.41668,1.594146 0.98629,2.181237 0.0757,0.07804 0.14469,0.139473 0.15327,0.136508 0.009,-0.003 0.28559,-0.392755 0.61558,-0.866198 z m 4.78898,0.251771 c 0.352,-0.527556 0.53838,-1.065681 0.59893,-1.729203 0.0223,-0.245202 0.006,-0.656765 -0.0344,-0.856814 l -0.0132,-0.06587 -0.99773,0.332741 c -0.54875,0.183008 -1.02267,0.348543 -1.05317,0.367856 -0.29273,0.185441 -0.37197,0.543828 -0.18641,0.843071 0.0375,0.06042 0.32798,0.460624 0.64558,0.889346 l 0.57747,0.779493 0.15444,-0.164804 c 0.0849,-0.09064 0.2238,-0.268756 0.30857,-0.395814 z m -3.44217,-1.026339 c 0.12084,-0.10394 0.041,-0.30724 -0.12066,-0.30724 -0.0892,0 -0.16588,0.08246 -0.16588,0.17851 0,0.15641 0.16709,0.231476 0.28654,0.12873 z m 1.18204,-0.002 c 0.0974,-0.05039 0.11687,-0.175761 0.0419,-0.270961 -0.0338,-0.043 -0.0619,-0.05534 -0.12601,-0.05534 -0.19316,0 -0.25347,0.243309 -0.0818,0.330156 0.0672,0.03402 0.0938,0.03341 0.16587,-0.0039 z m -0.46359,-0.500418 c 0.25197,-0.125425 0.35211,-0.452602 0.21743,-0.710399 -0.19906,-0.381047 -0.7337,-0.381047 -0.93276,0 -0.19506,0.373393 0.0998,0.809049 0.51889,0.766565 0.0577,-0.0059 0.14615,-0.03113 0.19644,-0.05617 z m -0.42745,-0.09179 c -0.21655,-0.11416 -0.29879,-0.348147 -0.19427,-0.552722 0.026,-0.05087 0.0836,-0.121387 0.12795,-0.156708 0.0745,-0.05926 0.0934,-0.06422 0.24482,-0.06422 0.15144,0 0.17034,0.005 0.24482,0.06422 0.25276,0.201141 0.22212,0.559574 -0.0602,0.704368 -0.0957,0.04907 -0.2749,0.05157 -0.3631,0.005 z m -0.68916,-0.514799 c 0.0956,-0.08985 0.0489,-0.273114 -0.0767,-0.300699 -0.1791,-0.03934 -0.29761,0.175481 -0.16819,0.304896 0.0573,0.05733 0.18165,0.0552 0.24487,-0.0042 z m 1.97118,-0.04788 c 0.13694,-0.136945 -0.018,-0.360071 -0.19815,-0.285432 -0.1118,0.04631 -0.14174,0.199469 -0.0558,0.285432 0.0702,0.07013 0.18379,0.07013 0.25393,0 z m -1.00806,-0.714042 c 0.10505,-0.105049 0.0484,-0.274492 -0.0997,-0.298201 -0.0672,-0.01078 -0.0864,-0.0037 -0.14175,0.05152 -0.071,0.07105 -0.0792,0.123868 -0.0329,0.213364 0.0357,0.06896 0.0577,0.0809 0.15365,0.0832 0.047,0.0011 0.0857,-0.01487 0.12076,-0.04989 z m -0.94556,-0.05593 c 0.12589,-0.06287 0.22824,-0.181908 0.28535,-0.331879 0.0441,-0.115807 0.0445,-0.129553 0.0302,-1.177509 -0.008,-0.583185 -0.0186,-1.064508 -0.0237,-1.069607 -0.005,-0.0051 -0.13435,0.02162 -0.28724,0.05934 -0.68705,0.169595 -1.25288,0.49717 -1.74389,1.009585 -0.29284,0.305594 -0.68666,0.895743 -0.63056,0.944894 0.0138,0.01213 1.5225,0.486042 1.91797,0.602495 0.13337,0.03928 0.33133,0.02293 0.45198,-0.03733 z m 3.05524,-0.294461 c 0.52555,-0.172442 0.96762,-0.31774 0.98238,-0.322878 0.0718,-0.02501 -0.30393,-0.588539 -0.59189,-0.887717 -0.54922,-0.570626 -1.1869,-0.91499 -1.97188,-1.064873 l -0.14279,-0.02727 0.007,1.095073 c 0.007,1.247907 1.6e-4,1.197706 0.19221,1.373917 0.1384,0.126979 0.29329,0.178402 0.47561,0.157902 0.052,-0.0059 0.52451,-0.151716 1.05007,-0.324158 z"
       id="path1073"
       sodipodi:nodetypes="sssssssssssssssscsssssssssssssssssssscsssssssssssssssscssssssssssssssssssssssscssssssssssssssssssssssscsssssscccsssssssscssssssscssssssscsssssssscsssscsssssssssssssssssssssssssssssssssssssssssssssssssssscscsss" />
  </g>
</svg>
